<svg xmlns="http://www.w3.org/2000/svg" viewBox="0 0 192 192" width="192" height="192">
  <rect width="192" height="192" rx="38" fill="#1a0f06"/>
  <rect x="8" y="8" width="176" height="176" rx="32" fill="none" stroke="#c9963a" stroke-width="2" opacity="0.6"/>
  <!-- Book spines -->
  <rect x="32" y="58" width="20" height="90" rx="2" fill="#5c1a1a"/>
  <rect x="55" y="64" width="16" height="84" rx="2" fill="#1a3a5c"/>
  <rect x="74" y="55" width="22" height="93" rx="2" fill="#3a1a5c"/>
  <rect x="99" y="62" width="18" height="86" rx="2" fill="#1a5c2a"/>
  <rect x="120" y="58" width="20" height="90" rx="2" fill="#5c3a1a"/>
  <rect x="143" y="65" width="17" height="83" rx="2" fill="#1a4a4a"/>
  <!-- Gold lines on spines -->
  <line x1="35" y1="66" x2="35" y2="140" stroke="#c9963a" stroke-width="0.8" opacity="0.5"/>
  <line x1="77" y1="63" x2="77" y2="140" stroke="#c9963a" stroke-width="0.8" opacity="0.5"/>
  <line x1="122" y1="66" x2="122" y2="140" stroke="#c9963a" stroke-width="0.8" opacity="0.5"/>
  <!-- Shelf plank -->
  <rect x="24" y="148" width="144" height="12" rx="2" fill="#7a5230"/>
  <rect x="24" y="148" width="144" height="3" rx="1" fill="#c9963a" opacity="0.2"/>
  <!-- Candle flame -->
  <ellipse cx="162" cy="36" rx="6" ry="9" fill="#ffe566" opacity="0.9"/>
  <ellipse cx="162" cy="38" rx="3" ry="5" fill="#fff" opacity="0.7"/>
  <!-- Candle body -->
  <rect x="158" y="44" width="8" height="18" rx="1" fill="#f0e6c8"/>
  <!-- Title text -->
  <text x="96" y="182" font-family="Georgia,serif" font-size="13" font-style="italic" fill="#c9963a" text-anchor="middle" opacity="0.8">PageMood</text>
</svg>
